<?xml version="1.0" encoding="UTF-8" standalone="no"?>
<svg
   xmlns:dc="http://purl.org/dc/elements/1.1/"
   xmlns:cc="http://creativecommons.org/ns#"
   xmlns:rdf="http://www.w3.org/1999/02/22-rdf-syntax-ns#"
   xmlns:svg="http://www.w3.org/2000/svg"
   xmlns="http://www.w3.org/2000/svg"
   xmlns:sodipodi="http://sodipodi.sourceforge.net/DTD/sodipodi-0.dtd"
   xmlns:inkscape="http://www.inkscape.org/namespaces/inkscape"
   version="1.1"
   x="0px"
   y="0px"
   viewBox="0 0 100 125"
   enable-background="new 0 0 100 100"
   xml:space="preserve"
   id="svg8"
   sodipodi:docname="noun_Darth Vader_65913.svg"
   inkscape:version="0.92.5 (2060ec1f9f, 2020-04-08)"><metadata
     id="metadata14"><rdf:RDF><cc:Work
         rdf:about=""><dc:format>image/svg+xml</dc:format><dc:type
           rdf:resource="http://purl.org/dc/dcmitype/StillImage" /></cc:Work></rdf:RDF></metadata><defs
     id="defs12" /><sodipodi:namedview
     pagecolor="#ffffff"
     bordercolor="#666666"
     borderopacity="1"
     objecttolerance="10"
     gridtolerance="10"
     guidetolerance="10"
     inkscape:pageopacity="0"
     inkscape:pageshadow="2"
     inkscape:window-width="1870"
     inkscape:window-height="1016"
     id="namedview10"
     showgrid="false"
     inkscape:zoom="1.888"
     inkscape:cx="50"
     inkscape:cy="62.5"
     inkscape:window-x="50"
     inkscape:window-y="27"
     inkscape:window-maximized="1"
     inkscape:current-layer="svg8" /><path
     d="M 85.169647,54.059634 V 41.397991 c 0,-15.473638 -12.662737,-28.13528 -28.135281,-28.13528 H 42.965632 c -15.473639,0 -28.136375,12.661642 -28.136375,28.13528 V 54.059634 L 0.76271095,90.636374 c 0,7.033273 22.04408105,21.100916 49.23728805,21.100916 27.193207,0 49.23729,-14.067643 49.23729,-21.100916 z M 28.897991,100.30767 c -1.457423,0 -2.638024,-1.181694 -2.638024,-2.638023 0,-1.458518 1.180601,-2.63693 2.638024,-2.63693 1.458518,0 2.638025,1.178412 2.638025,2.63693 0,1.456329 -1.179507,2.638023 -2.638025,2.638023 M 25.381355,62.499999 c 0,-1.934478 0.978181,-4.762887 2.169723,-6.283772 0,0 3.342665,-4.267232 10.139599,-4.267232 3.448798,0 5.854861,1.585441 5.854861,1.585441 1.616077,1.062431 2.937824,3.514448 2.937824,5.447832 v 5.276049 c 0,0.966145 -1.582158,1.758319 -3.516636,1.758319 H 28.897991 c -1.934478,0.0011 -3.516636,-1.583253 -3.516636,-3.516637 m 14.066546,35.169648 h -3.516636 v -7.033273 l 3.516636,-3.517731 z m 8.792686,0 h -5.274955 v -14.06764 h 5.274955 z M 44.72395,80.084276 v -5.274955 c 0,-2.914847 2.364484,-5.274955 5.276049,-5.274955 2.912659,0 5.274955,2.360108 5.274955,5.274955 v 5.274955 z m 12.310416,17.585371 h -5.274955 v -14.06764 h 5.274955 z m 7.033273,0 H 60.551003 V 87.118643 l 3.516636,3.517731 z m 7.034368,2.638023 c -1.458518,0 -2.638025,-1.181694 -2.638025,-2.638023 0,-1.458518 1.179507,-2.63693 2.638025,-2.63693 1.456329,0 2.63693,1.178412 2.63693,2.63693 0,1.456329 -1.180601,2.638023 -2.63693,2.638023 m 0,-34.28994 H 57.034366 c -1.935572,0 -3.516636,-0.793268 -3.516636,-1.758319 v -5.276049 c 0,-1.934478 1.320653,-4.386495 2.937825,-5.447832 0,0 2.406062,-1.585441 5.85486,-1.585441 6.800217,0 10.139599,4.267232 10.139599,4.267232 1.192637,1.519791 2.168629,4.3482 2.168629,6.282678 0,1.933384 -1.584346,3.517731 -3.516636,3.517731 m 21.737715,26.257698 c -0.207891,0.08206 -0.424535,0.11817 -0.636802,0.11817 -0.705735,0 -1.368797,-0.425629 -1.636866,-1.119328 L 77.776394,58.422057 C 74.39434,49.971845 70.213547,46.672946 62.868438,46.672946 c -4.872303,0 -8.961187,3.022076 -8.998388,3.0549 -2.170817,1.627019 -5.567096,1.61936 -7.739008,0 -0.03611,-0.03282 -4.16438,-3.0549 -9.000576,-3.0549 -7.342921,0 -11.523714,3.298899 -14.911239,11.763335 L 9.4350391,91.27427 C 9.0838131,92.179142 8.0596771,92.627749 7.1580875,92.275428 6.2554039,91.925297 5.8057033,90.905538 6.1591176,89.997383 L 18.947683,57.147359 c 3.92257,-9.810256 9.359461,-13.991049 18.182783,-13.991049 6.034303,0 10.906606,3.604169 11.110121,3.754069 0.921284,0.693699 2.598634,0.693699 3.51773,0 0.204609,-0.1499 5.0791,-3.754069 11.109027,-3.754069 8.824416,0 14.260212,4.180793 18.179501,13.976825 l 12.796224,32.864248 c 0.350132,0.908155 -0.09629,1.927914 -1.003347,2.278045"
     id="path2"
     inkscape:connector-curvature="0"
     style="stroke-width:1.09416199" /></svg>