<?xml version="1.0" encoding="UTF-8" standalone="no"?>
<!-- Generator: Adobe Illustrator 23.1.0, SVG Export Plug-In . SVG Version: 6.00 Build 0)  -->

<svg
   xmlns:dc="http://purl.org/dc/elements/1.1/"
   xmlns:cc="http://creativecommons.org/ns#"
   xmlns:rdf="http://www.w3.org/1999/02/22-rdf-syntax-ns#"
   xmlns:svg="http://www.w3.org/2000/svg"
   xmlns="http://www.w3.org/2000/svg"
   xmlns:xlink="http://www.w3.org/1999/xlink"
   xmlns:sodipodi="http://sodipodi.sourceforge.net/DTD/sodipodi-0.dtd"
   xmlns:inkscape="http://www.inkscape.org/namespaces/inkscape"
   version="1.1"
   id="Camada_1"
   x="0px"
   y="0px"
   viewBox="0 0 2257 428.6"
   style="enable-background:new 0 0 2257 428.6;"
   xml:space="preserve"
   sodipodi:docname="gran-logo.svg"
   inkscape:version="0.92.5 (2060ec1f9f, 2020-04-08)"><metadata
   id="metadata47"><rdf:RDF><cc:Work
       rdf:about=""><dc:format>image/svg+xml</dc:format><dc:type
         rdf:resource="http://purl.org/dc/dcmitype/StillImage" /></cc:Work></rdf:RDF></metadata><defs
   id="defs45">
	<defs
   id="defs5">
		<rect
   height="481.9"
   width="2304"
   y="-19.4"
   x="-19.4"
   id="SVGID_1_" />
	</defs>
	<clipPath
   id="SVGID_2_">
		<use
   id="use7"
   style="overflow:visible;"
   xlink:href="#SVGID_1_" />
	</clipPath>
	
	
	
	
	
	
	
	
	
	
	
	
	
	
	
</defs><sodipodi:namedview
   pagecolor="#ffffff"
   bordercolor="#666666"
   borderopacity="1"
   objecttolerance="10"
   gridtolerance="10"
   guidetolerance="10"
   inkscape:pageopacity="0"
   inkscape:pageshadow="2"
   inkscape:window-width="1870"
   inkscape:window-height="1016"
   id="namedview43"
   showgrid="false"
   inkscape:zoom="0.42977404"
   inkscape:cx="1070.7818"
   inkscape:cy="149.48844"
   inkscape:window-x="50"
   inkscape:window-y="27"
   inkscape:window-maximized="1"
   inkscape:current-layer="Camada_1" />
<style
   type="text/css"
   id="style2">
	.st0{clip-path:url(#SVGID_2_);fill-rule:evenodd;clip-rule:evenodd;fill:#00163D;}
	.st1{clip-path:url(#SVGID_2_);fill-rule:evenodd;clip-rule:evenodd;fill:#A3282A;}
	.st2{clip-path:url(#SVGID_2_);fill:#A3282A;}
</style>
<path
   style="clip-rule:evenodd;fill:#ffffff;fill-rule:evenodd"
   transform="matrix(0.96710456,0,0,0.96710456,58.203909,112.8065)"
   inkscape:connector-curvature="0"
   id="path10"
   clip-path="url(#SVGID_2_)"
   d="M 636.5,96 H 532.3 v 33 h 64.3 c -5.4,18.5 -28,33 -50.2,33 -30.6,0 -55.9,-26.4 -55.9,-56.1 0,-29.7 25.2,-55.8 55.9,-55.8 18.6,0 35.4,11.6 46,26.4 l 32,-18.8 c -17,-25.4 -46,-41.8 -78,-41.8 -51.1,0 -92.9,40.6 -92.9,90.1 0,49.7 41.7,90.1 92.9,90.1 46.4,0 86.3,-31.6 90,-76 0.2,-3.6 0.5,-6.9 0.5,-10 0.1,-3.9 -0.2,-9.4 -0.4,-14.1"
   class="st0" /><polygon
   style="clip-rule:evenodd;fill:#ffffff;fill-rule:evenodd"
   transform="matrix(0.96710456,0,0,0.96710456,58.203909,112.99993)"
   id="polygon12"
   clip-path="url(#SVGID_2_)"
   points="1160.2,198.1 1160.2,19.2 1123,19.2 1123,119.5 1004.2,13.5 1004.2,192.7 1041.2,192.7 1041.2,93.8 "
   class="st0" /><path
   style="clip-rule:evenodd;fill:#ffffff;fill-rule:evenodd"
   transform="matrix(0.96710456,0,0,0.96710456,58.203909,115.61111)"
   inkscape:connector-curvature="0"
   id="path14"
   clip-path="url(#SVGID_2_)"
   d="m 694.2,192.7 v -54.2 h 25.5 c 14.1,19 27.1,36.4 41.2,54.2 h 44.5 C 791.5,174.2 775.7,153.3 760.9,134.5 782.3,125.2 796,104.6 796,79.4 796,43.8 770.8,19 733.8,19 h -76.6 v 173.7 z m 0,-86.8 V 51.5 h 39.6 c 21.9,0 25.2,18.8 25.2,27.8 0,18.1 -13.7,26.6 -25.2,26.6 z m 114.6,86.8 h 41 L 863,166.1 h 80.4 l 13.7,26.6 h 40.8 L 903.4,13.5 Z M 881.4,134 903.3,88.6 925.5,134 Z"
   class="st0" />
	<path
   style="clip-rule:evenodd;fill:#ffffff;fill-rule:evenodd"
   inkscape:connector-curvature="0"
   id="path16"
   clip-path="url(#SVGID_2_)"
   d="M 217.5,2.1 C 100.4,2.1 5.4,97.1 5.4,214.3 c 0,117.2 95,212.2 212.2,212.2 117.2,0 212.2,-95 212.2,-212.2 C 429.7,97.1 334.7,2.1 217.5,2.1 Z m 132.7,342 C 319.3,375.5 276.1,391 220.6,390.5 193.3,390.2 169,386 147.9,377.6 126.7,369.3 107.8,356.6 91.3,339.7 75.4,323.6 63.3,304.5 54.6,282.6 46,260.7 41.8,237.7 42.1,213.8 42.3,188.9 46.9,166 55.6,145.1 64.4,124.2 77.3,105.6 94.6,89 111.6,72.9 131.2,60.8 153.1,52.5 175,44.4 198.6,40.4 224,40.6 c 33,0.3 63.2,5.1 87.3,20.3 58.7,37.1 74.9,90.8 75.8,95 l -92.3,0.5 c -9.4,-13 -20,-22.7 -31.8,-29.1 -11.9,-6.4 -25.1,-9.7 -39.8,-9.9 -27.5,-0.3 -49.2,8.6 -65.1,26.6 -16,18.1 -24.1,42.9 -24.4,74.3 -0.3,31.8 7.4,57 23,75.4 15.6,18.5 37.1,27.8 64.6,28.1 23.2,0.2 42.8,-5.3 58.4,-16.5 15.6,-11.2 24.9,-26.2 27.7,-45.1 l -91.3,-0.9 0.7,-70.1 178.6,1.7 c 0.1,2.3 0.5,4.6 0.9,7.9 0.7,4.8 0.6,6.5 1.1,11.8 4,50.7 -16.3,102.1 -47.2,133.5 z"
   class="st1"
   transform="matrix(0.96710456,0,0,0.96710456,0.17763537,8.0690804)" /><path
   style="clip-rule:evenodd;fill:#ffffff;fill-rule:evenodd"
   transform="matrix(0.96710456,0,0,0.96710456,58.203909,112.75815)"
   inkscape:connector-curvature="0"
   id="path36"
   clip-path="url(#SVGID_2_)"
   d="m 1423.5,148.4 -34.9,-13.6 c -10.4,15.3 -28.2,27.7 -47.4,27.7 -30.8,0 -55.7,-26.5 -55.7,-56.4 0,-29.9 24.9,-56.2 55.7,-56.2 19.2,0 37,12.2 47.4,27.3 l 34.9,-13.6 c -16.6,-28.4 -47.4,-47.8 -82.3,-47.8 -51.4,0 -93.4,40.6 -93.4,90.4 0,50 42,90.6 93.4,90.6 34.9,-0.1 65.7,-19.4 82.3,-48.4 m 88,48.1 c 46.9,0 77.3,-29.2 77.3,-73.9 V 18.9 h -37.5 v 103.8 c 0,33 -25.1,41.4 -39.8,41.4 -15.2,0 -40.3,-8.4 -40.3,-41.4 V 18.9 h -37.5 v 103.8 c 0.1,44.6 30.6,73.8 77.8,73.8 m 138.3,-3.1 v -54.5 h 25.6 c 14.2,19.1 27.3,36.6 41.5,54.5 h 44.8 c -14,-18.6 -29.9,-39.7 -44.8,-58.6 21.6,-9.3 35.3,-30.1 35.3,-55.5 0,-35.9 -25.4,-60.7 -62.6,-60.7 h -77.1 v 174.8 z m 0,-87.3 V 51.4 h 39.8 c 22,0 25.4,18.9 25.4,28 0,18.2 -13.8,26.8 -25.4,26.8 h -39.8 z m 132.1,34.4 -19.9,28.9 c 16.1,13.9 40.8,27.3 78.2,27.3 41,0 69,-17.9 69,-54.3 0,-46.9 -44.8,-50.4 -73,-56.4 -15.6,-3.3 -34.4,-6.2 -34.4,-18.6 0,-13.9 19,-17.2 29.9,-17.2 16.8,0 34.1,7.2 49.1,17.9 l 20.9,-28.7 c -19,-14.1 -38.2,-23.4 -68.5,-23.4 -30.6,0 -68.8,11.2 -68.8,52.8 0,41.8 46.9,50 68.8,53.6 20.2,3.6 38.6,7.2 38.6,21 0,9.8 -11.4,19.4 -32,19.4 -19.9,0 -45.3,-11.7 -57.9,-22.3 m 224.4,56.2 c 51.7,0 93.6,-40.6 93.6,-90.8 0,-49.7 -42,-90.6 -93.6,-90.6 -51.4,0 -93.2,40.9 -93.2,90.6 0,50.2 41.7,90.8 93.2,90.8 m 0,-147 c 31.1,0 56,26.3 56,56.2 0,30.1 -24.9,56.7 -56,56.7 -30.8,0 -56,-26.5 -56,-56.7 0,-29.9 25.2,-56.2 56,-56.2 m 120.7,90.8 -19.9,28.9 c 16.1,13.9 40.8,27.3 78.2,27.3 41,0 69,-17.9 69,-54.3 0,-46.9 -44.8,-50.4 -73,-56.4 -15.6,-3.3 -34.4,-6.2 -34.4,-18.6 0,-13.9 19,-17.2 29.9,-17.2 16.8,0 34.1,7.2 49.1,17.9 l 20.9,-28.7 c -19,-14.1 -38.2,-23.4 -68.5,-23.4 -30.6,0 -68.8,11.2 -68.8,52.8 0,41.8 46.9,50 68.8,53.6 20.2,3.6 38.6,7.2 38.6,21 0,9.8 -11.4,19.4 -32,19.4 -19.9,0 -45.3,-11.7 -57.9,-22.3"
   class="st0" />
</svg>